<?xml version="1.0" encoding="utf-8"?>
<!-- Generator: Adobe Illustrator 18.1.1, SVG Export Plug-In . SVG Version: 6.00 Build 0)  -->
<svg version="1.1" id="Layer_1" xmlns="http://www.w3.org/2000/svg" xmlns:xlink="http://www.w3.org/1999/xlink" x="0px" y="0px"
	 viewBox="0 0 495 127" enable-background="new 0 0 495 127" xml:space="preserve">
<path fill-rule="evenodd" clip-rule="evenodd" d="M128.3,243.8"/>
<path d="M463.3,64.1c0,23.4-19,42.4-42.4,42.4c-23.4,0-42.4-19-42.4-42.4c0-23.4,19-42.4,42.4-42.4
	C444.3,21.7,463.3,40.7,463.3,64.1"/>
<path d="M51.6,29.7v31.9c4-8.1,12.2-11.8,20.8-11.8c14,0,25.2,9.4,25.2,25.9c0,16.7-11.1,25.9-25.1,25.9c-8.5,0-16.8-4.3-20.9-11.9
	v11.1h-4.9V29.7H51.6z M51.7,75.6c0,12.5,8.7,21.1,20.5,21.1c11.3,0,20.5-7.1,20.5-21c0-14.1-9.3-21.2-20.5-21.2
	C60.7,54.6,51.7,63.1,51.7,75.6"/>
<path d="M150.3,100.8v-9c-3.9,6.9-10.9,9.8-17.9,9.9c-13.4,0-22.7-8.2-22.7-22.2v-29h5v28.9c0,11.4,7,17.5,17.9,17.4
	c10.4-0.1,17.6-7.9,17.6-18.3v-28h5v50.3H150.3z"/>
<path d="M216.5,29.7v71.2h-4.9V89.8c-4.2,7.6-12.4,11.9-20.9,11.9c-14,0-25.1-9.3-25.1-25.9c0-16.6,11.2-25.9,25.2-25.9
	c8.6,0,16.8,3.6,20.8,11.8V29.7H216.5z M170.4,75.7c0,13.9,9.3,21,20.5,21c11.8,0,20.5-8.6,20.5-21.1c0-12.5-8.9-21-20.5-21
	C179.7,54.6,170.4,61.6,170.4,75.7"/>
<polygon points="230.2,100.8 230.2,29.8 281.4,29.8 281.4,42.7 243.7,42.7 243.7,62.1 279.3,62.1 279.3,74.5 243.7,74.5 
	243.7,100.8 "/>
<path d="M353.8,100.8h-16L317.1,77h-12.9v23.8h-13.4V29.6c11.3,0,22.6,0.1,33.9,0.1c16.8,0.1,25.6,11.3,25.6,23.6
	c0,9.8-4.5,19.6-18,22.4l21.6,24.3V100.8z M304.2,42.2V65h20.4c8.5,0,12.2-5.7,12.2-11.4c0-5.7-3.8-11.4-12.2-11.4H304.2z"/>
<rect x="359.4" y="29.7" width="13.3" height="71.2"/>
<path fill="#F6F5F4" d="M405.7,62.6c-4.2-0.3-6.1-1.4-6.1-3.6c0-2.1,2.1-3.2,5.9-3.2c3.1,0,5.7,0.7,8,2.9l4.5-5.3
	c-3.8-3.3-7.6-4.3-12.7-4.3c-5.9,0-13.7,2.6-13.7,10.1c0,7.4,7.3,9.6,13.4,10.1c4.6,0.3,6.5,1.2,6.5,3.4c0,2.4-2.8,4-5.9,3.9
	c-1.1,0-2.4-0.2-3.7-0.6c0.9,2.3,1,5,0.1,7.3c1.2,0.1,2.3,0.2,3.5,0.2c9.3,0,14-4.9,14-10.7C419.7,64.4,411.9,63,405.7,62.6"/>
<polygon fill="#F6F5F4" points="432.6,36.5 432.6,63.2 443.6,50.1 453.2,50.1 453.2,50.6 440,65.4 455.1,82 455.1,82.6 445.4,82.6 
	432.6,67.9 432.6,82.6 424.6,82.6 424.6,36.5 "/>
<path fill="#F6F5F4" d="M399.6,79.4c0,2.9-2.4,5.3-5.3,5.3c-2.9,0-5.3-2.4-5.3-5.3c0-2.9,2.4-5.3,5.3-5.3
	C397.2,74,399.6,76.4,399.6,79.4"/>
</svg>
