<?xml version="1.0" encoding="utf-8"?>
<!-- Generator: Adobe Illustrator 18.1.1, SVG Export Plug-In . SVG Version: 6.00 Build 0)  -->
<svg version="1.1" id="Layer_1" xmlns="http://www.w3.org/2000/svg" xmlns:xlink="http://www.w3.org/1999/xlink" x="0px" y="0px"
	 viewBox="0 0 225.9 82.8" enable-background="new 0 0 225.9 82.8" xml:space="preserve">
<g>
	<g>
		<path d="M10.6,18.1c1.5,0,2.5,6.3,3,18.9v0.2h0.2c0.8-1.7,2-2.6,3.6-2.6h1.2c3.4,1.1,5,3.4,5,6.6c-0.6,4.8-2.4,7.2-5.6,7.2h-1.4
			c-3.2,0-5.4-1.8-6.6-5.4v-1.2c0-1.2,0.5-2.1,1.6-2.8c0-3.4-0.5-10.3-1.4-20.7l0.2-0.2H10.6z M11,41l0.6,1.8h0.2v-0.6l-0.2-2.6
			C11.3,39.6,11.1,40.1,11,41z M14.4,45.1v0.8c1,0.4,2,0.6,2.8,0.6h0.2c2.4,0,3.8-1.7,4.2-5.2c-0.7-3.1-1.9-4.6-3.6-4.6h-0.2
			C15.6,36.6,14.4,39.4,14.4,45.1z"/>
		<path d="M27.3,35.4h0.4l0.4,0.4v0.4c-1.3,4.2-2,7-2,8.2v2l0.4,0.4c2.4-2.1,4.6-4.9,6.6-8.4l0.8-0.2h0.2l0.8,1l-0.6,4.2
			c0,0.8,0.5,1.5,1.4,2.2h2.6l4.8-0.4v0.4l-6,2H36c-2,0-3.2-1.3-3.6-4c-2.6,3.5-4.6,5.2-5.8,5.2h-1c-1.1-0.7-1.6-1.8-1.6-3.4
			c0-2.4,0.7-5.4,2.2-9.1L27.3,35.4z"/>
		<path d="M46.8,16.3H47l0.6,0.6l-2,17.7l-0.2,6.6v1.4c2.4-1.9,3.7-3.4,3.7-4.6h0.2v0.2c0,1.5-1.2,3.9-3.7,7l1.5,5l-0.2,0.2h-0.2
			c-2-1.5-3-2.7-2.9-3.8h-0.2c-1.4,0.5-2.6,0.8-3.4,0.8h-0.2c-1.9,0-3-1.1-3.2-3.4v-0.4c0-3,1.5-5,4.4-5.8h1.2l1,0.2
			C44.4,23.6,45.6,16.3,46.8,16.3z M38.7,43.9c0.2,1.1,0.6,1.6,1.4,1.6c1,0,2.1-0.5,3.2-1.4v-1.4l-0.2-0.8l0.2-0.2l-0.2-1v-0.2
			l0.2-0.2l-0.2-0.8h-0.6C40.5,39.5,39.2,40.9,38.7,43.9z"/>
		<path d="M77.4,35.9H78c0.3,0,0.5,0.4,0.8,1.2c-0.3,0.6-0.4,1.5-0.4,2.6v0.4c0,2.7,1.7,4,5,4h1.2c0.7,0,1.9-0.3,3.4-0.8h0.2
			c-2.4,1.7-4.6,2.6-6.6,2.6H81c-1.9,0-3.3-1.1-4.2-3.2c-2,2.8-3.8,4.2-5.4,4.2h-1c-1.5-0.3-2.2-1-2.2-2.2v-1.2
			c0.7-3.6,2.5-5.4,5.4-5.4l0.2-0.2l2.4,0.6v-0.2C76.2,37.2,76.6,36.4,77.4,35.9z M70.2,44.1v0.2l0.6,0.6H71c1.7,0,3.3-1.7,4.6-5
			h-0.2c-2.7,0-4.4,1-5,3L70.2,44.1z"/>
		<path d="M85.6,38.8c-0.4-4.2-0.8-6.2-1.2-6.2h-0.6c-0.3,0.1-0.5,0.4-0.8,1l0.2,3.4C87.7,55,90,64.6,90,65.8c0,0.6-0.7,0.9-2.2,1
			c-3,0-6.9-1.3-11.7-3.8c0-0.4,1.2-0.7,3.6-1h2v-0.4l-3.4-0.2h-2.8c-0.8,0-1.4,0.5-1.8,1.4c0,0.5,0.3,1,0.8,1.6
			c5,3,9.3,4.4,12.9,4.4H88c2.7,0,4-0.8,4-2.4v-1C92,63.5,89.9,54.6,85.6,38.8z"/>
		<path d="M112.2,20.1h0.6c0.7,0,1,1.7,1,5.2v1.4h0.2l5.6-1.2h2.2c1.6,0,3.1,1,4.4,3V29h-0.2c-1.3-1.1-2.5-1.6-3.8-1.6
			c-5.9,0.6-8.9,1.5-8.9,2.6c-1.2,9.5-1.8,15.8-1.8,18.7v0.8h0.2v-0.6h0.4v1.4c0,0.9-0.4,1.4-1.2,1.4c-0.9-0.4-1.4-1.1-1.4-2v-1.8
			c0-3.4,0.6-9.3,1.8-17.9h-0.2l-5.4,1h-1.2l-0.8-0.8c0-0.6,2.6-1.4,7.8-2.6v-4.2l-0.2-1.8C111.6,20.6,111.9,20.1,112.2,20.1z"/>
		<path d="M125.4,32.9c0.7,0,1,0.5,1,1.4h0.2c-1.5,5.2-2.3,9.2-2.3,12.1l0.2,2.4v5.6c10.6-1.5,16.9-3,18.9-4.4l1.8-1.6v0.4
			c0,1.1-2.7,2.7-8,4.8c-6.7,1.9-11,2.8-12.7,2.8c0,4.9,0.6,10.9,1.8,17.9V75c-0.2,0.5-0.7,0.8-1.4,0.8l-11.7-8.9
			c-6.6-4.7-9.9-8.2-9.9-10.7v-0.4c0.2-1.3,0.9-2,2-2h0.2l8.9,0.8h7.8v-0.6v-8.7v-0.2h-0.2c-1.1,3-2.3,4.4-3.8,4.4h-0.2
			c-1.6,0-2.4-1.4-2.4-4.2v-0.8c0.1-5.5,0.7-8.2,1.9-8.2h0.2c0.3,0,0.5,0.3,0.6,1c-0.5,2.6-0.7,5.4-0.7,8.2c0.1,1.2,0.3,1.8,0.6,1.8
			c2.1-2.5,3.7-5.4,4.7-8.4C123.4,34.9,124.2,32.9,125.4,32.9z M105.6,55.9l-0.2,0.2v0.2c0.9,2.5,4.7,6.1,11.5,10.9l7,5.4v-0.2
			c-1.1-7-1.6-12.3-1.6-15.7l-5.4,0.2L105.6,55.9z M145.2,46.8h0.4v0.8h-0.4V46.8z"/>
		<path d="M153.2,10h1.2c3.8,0,6.3,2.7,7.6,8.2l0.4,3.8v1c3-0.8,10.8-3.8,23.3-9.1c4.6-1.9,8.5-2.8,11.9-2.8h2
			c3.5,0,5.9,1.8,7.4,5.4l0.2,1.6l-0.4,2.4h-0.4l0.2-1v-0.8c0-2.8-2.4-4.7-7.2-5.6h-1c-4.7,0-12.8,2.6-24.3,7.8l-11.9,4.4
			c-0.5,3.5-1.6,7.5-3.2,12.3c2-0.5,4.6-1,7.6-1.4l0.2,0.2V37c-3.4,2-6.3,3-8.7,3c-3.2,7.3-5.8,11.4-7.8,12.3c-1.5,1.3-2.9,2-4.2,2
			v-0.4c2.3-0.9,4-2.5,5.2-4.8c2.8-4.9,4.2-7.9,4.2-9.1c-1.1-0.1-1.6-0.4-1.6-0.8V39c0-0.4,0.9-0.7,2.6-1c2.3-6.4,3.4-10.4,3.4-11.9
			c-3.4,0.7-5.8,1-7.4,1h-1c-5.2-0.6-7.8-2.4-7.8-5.6v-1.6c0-2.7,1.9-5.6,5.6-8.7C151.3,10.4,152.6,10,153.2,10z M145.7,20.9
			c0,2.4,2,3.8,6,4.2h0.8c5.2-0.5,7.8-1.1,7.8-1.6v-0.4c0-5.1-1.3-8.6-3.8-10.3c-0.9-0.5-1.7-0.8-2.4-0.8h-0.4
			c-3.3,0-5.9,2.4-7.8,7.2L145.7,20.9z"/>
		<path d="M168.3,12.5h2.4c4.8,0,10.7,2,17.7,6c3,2.3,4.4,4.8,4.4,7.4c0,4.1-4.7,8.7-14.1,13.9l-0.2,0.2v4c9.5,2.1,17,5.7,22.5,10.9
			c2.7,2.3,4.6,4.2,5.6,5.6v0.2c-4-3.8-8.9-7-14.7-9.7c-3.4-1.9-7.4-3.4-12.3-4.6l-1-0.2v0.8c0,2.5,0.5,5.3,1.6,8.2l0.6-0.4l0.2,0.2
			h0.2c-0.3,0.8-0.7,1.3-1.2,1.4c-1.9,0-3.2-3.6-3.8-10.9c-5-0.4-7.4-1.2-7.4-2.4c0-0.7,1.7-1.7,5-3c0-0.2,0.8-0.6,2.4-1.2
			c0-14.1-0.4-21.1-1.2-21.1l-0.6-0.6l0.2-0.2h0.6c1.1,0,2,2,2.8,6l0.2,5.8v6c0,1.6,0.2,2.4,0.4,2.4c8-4.6,12.1-8.5,12.1-11.7
			c0-2-1.7-4.3-5.2-6.6c-6.4-3.1-11.7-4.6-15.9-4.6h-0.2c-4.4,0-6.6,0.9-6.6,2.6v0.2c0,0.9,1.4,2.9,4.2,6h-0.2c-3.4-2.7-5-5.1-5-7
			C162.7,13.7,164.9,12.5,168.3,12.5z M173.1,42.8c0,0.3,1.1,0.6,3.2,0.8v-2.2h-0.2L173.1,42.8z"/>
		<path d="M202.9,14.3c5.3,0,9.2,1.5,11.7,4.6l0.4,2.4h-0.2c-3.2-3.2-6.9-4.8-11.3-4.8h-2.4c0.7,0.7,1,1.5,1,2.4v1.2l-2.4,21.7
			l-0.4,6.8h0.2c7.9,0,12.5,1.7,13.9,5.2v0.2l-0.2,0.2h-0.2c-3.8-2.3-7.7-3.4-11.7-3.4l-12.7,0.2c-0.9,0-1.6-0.3-2-1v-0.8
			c0-0.3,0.5-0.5,1.4-0.8v0.2l-0.2,0.2v0.2h0.4l8.9-0.2l0.2-0.2v-0.6c0-3,0.9-12.4,2.8-28.2v-2.2l0.4-1.2c-4.2,0.3-8.1,1.4-11.9,3.2
			l-0.2,0.2v0.6c0.1,0.4,0.5,0.6,1.2,0.6v0.4h-0.4c-0.7,0-1.2-0.3-1.6-1v-0.8C187.6,16.8,192.7,15,202.9,14.3z"/>
	</g>
</g>
<path d="M49.7,17c1.1,0,1.7,0.8,2,2.5v1.5c-0.5,3.1-1.5,4.6-3,4.6l-0.2-0.2h-0.2c1.1-2.5,1.7-4.1,1.7-4.6v-1c0-0.5-0.4-1-1.2-1.9
	l0-0.5C48.9,17.3,49.2,17.2,49.7,17z"/>
</svg>
